Source : NGB(Thanks)
 
http://www.imdb.com/title/tt2341664/

Format                                   : AVI
Format/Info                              : Audio Video Interleave
File size                                : 695 MiB
Duration                                 : 1h 26mn
Overall bit rate                         : 1 119 Kbps
Writing library                          : VirtualDub build 32842/release

Video
ID                                       : 0
Format                                   : MPEG-4 Visual
Format profile                           : Advanced Simple@L5
Format settings, BVOP                    : 2
Format settings, QPel                    : No
Format settings, GMC                     : No warppoints
Format settings, Matrix                  : Default (H.263)
Muxing mode                              : Packed bitstream
Codec ID                                 : XVID
Codec ID/Hint                            : XviD
Duration                                 : 1h 26mn
Bit rate                                 : 982 Kbps
Width                                    : 640 pixels
Height                                   : 288 pixels
Display aspect ratio                     : 2.222
Frame rate                               : 23.976 fps
Color space                              : YUV
Chroma subsampling                       : 4:2:0
Bit depth                                : 8 bits
Scan type                                : Progressive
Compression mode                         : Lossy
Bits/(Pixel*Frame)                       : 0.222
Stream size                              : 610 MiB (88%)
Writing library                          : XviD 1.2.0.dev47 (UTC 2006-11-01)

Audio
ID                                       : 1
Format                                   : MPEG Audio
Format version                           : Version 1
Format profile                           : Layer 3
Codec ID                                 : 55
Codec ID/Hint                            : MP3
Duration                                 : 1h 26mn
Bit rate mode                            : Constant
Bit rate                                 : 128 Kbps
Channel(s)                               : 2 channels
Sampling rate                            : 44.1 KHz
Compression mode                         : Lossy
Stream size                              : 79.5 MiB (11%)
Alignment                                : Split accross interleaves
Interleave, duration                     : 42 ms (1.00 video frame)
Interleave, preload duration             : 500 ms
Writing library                          : LAME3.99r
Encoding settings                        : -m s -V 4 -q 3 -lowpass 17 -b 128

Plot
A couple take a vacation to a remote island - their last holiday together before they become parents. Soon after their arrival, they notice that no adults seem to be present - an observation that quickly presents a nightmarish reality. 
 
http://www.shotpix.com/images/48188157452316599378.png 
http://www.shotpix.com/images/92993206910077229731.png 
http://www.shotpix.com/images/30220379463366847992.png